<?xml version="1.0" encoding="UTF-8"?>
<svg viewBox="0 0 396 396" version="1.1" xmlns="http://www.w3.org/2000/svg" xmlns:xlink="http://www.w3.org/1999/xlink">
    <title>smile 02</title>
    <g id="Page-1" stroke="none" stroke-width="1" fill="none" fill-rule="evenodd">
        <g id="smile-02" transform="translate(3.000000, 3.000000)" stroke="#EB3030">
            <circle id="Oval" stroke-width="5.99" fill="#F9B9C0" fill-rule="nonzero" cx="195.17" cy="195.17" r="194.18"></circle>
            <path d="M262.74,172.23 C262.74,195.57 235.84,225.46 195.17,225.46 C154.5,225.46 127.6,194.41 127.6,172.23" id="Path" stroke-width="4.61"></path>
            <polygon id="Path" fill="#EB3030" fill-rule="nonzero" points="30.14 257.12 55.66 246.76 53.12 240.51 55.86 239.4 62 254.59 59.26 255.7 56.73 249.46 31.23 259.81"></polygon>
            <polygon id="Path" fill="#EB3030" fill-rule="nonzero" points="42.74 283.27 68.13 266.37 69.74 268.79 58.29 276.41 65.41 287.1 76.85 279.48 78.47 281.9 53.07 298.8 51.46 296.38 63 288.73 55.88 278.05 44.4 285.69"></polygon>
            <polygon id="Path" fill="#EB3030" fill-rule="nonzero" points="67.06 315.3 88.49 293.59 99 304 97 306.1 88.52 297.74 80.94 305.42 86.89 311.29 84.81 313.39 78.81 307.52 71.2 315.24 79.29 323.24 77.21 325.34"></polygon>
            <path d="M114.72,342.68 L115.97,340.15 L118.58,341.44 L117.33,344 C116.765273,345.165015 116.692966,346.508235 117.129365,347.727141 C117.565763,348.946047 118.474172,349.938147 119.65,350.48 C120.824204,351.07294 122.1864,351.173084 123.434693,350.758238 C124.682985,350.343392 125.714274,349.447819 126.3,348.27 C127.5,345.83 126.39,343.18 124.65,341.18 L123.39,339.66 C120.78,336.66 119.62,332.79 121.3,329.38 C123.232997,325.478108 127.963108,323.882003 131.865,325.815 C135.766892,327.747997 137.362997,332.478108 135.43,336.38 L134.28,338.69 L131.67,337.41 L132.82,335.09 C133.670501,332.699248 132.595301,330.05052 130.319064,328.929007 C128.042827,327.807494 125.287448,328.568878 123.91,330.7 C122.73,333.1 123.91,335.76 125.58,337.75 L126.85,339.26 C129.45,342.26 130.61,346.14 128.91,349.59 C126.976297,353.493453 122.247761,355.094982 118.34,353.17 C116.442372,352.287737 114.984898,350.672 114.302234,348.693781 C113.619569,346.715563 113.770366,344.544826 114.72,342.68 L114.72,342.68 Z" id="Path" fill="#EB3030" fill-rule="nonzero"></path>
            <polygon id="Path" fill="#EB3030" fill-rule="nonzero" points="148.5 364.68 155.75 338.11 149.24 336.34 150.02 333.49 165.83 337.8 165.06 340.65 158.55 338.88 151.31 365.44"></polygon>
            <path d="M177.32,362 L178.75,340 L181.65,340.19 L180.23,362.24 C180.042223,365.178155 182.271845,367.712223 185.21,367.9 C188.148155,368.087777 190.682223,365.858155 190.87,362.92 L192.29,340.87 L195.19,341.06 L193.77,363.11 C193.463482,367.652542 189.532542,371.086518 184.99,370.78 C180.447458,370.473482 177.013482,366.542542 177.32,362 Z" id="Path" fill="#EB3030" fill-rule="nonzero"></path>
            <path d="M214.84,370.53 L210.33,340.36 L213.25,339.93 C221.497188,338.843789 229.093416,344.567144 230.323638,352.794083 C231.553859,361.021022 225.964175,368.716144 217.76,370.09 L214.84,370.53 Z M217.28,367.17 C223.993021,366.164842 228.620158,359.908021 227.615,353.195 C226.609841,346.481979 220.353021,341.854842 213.64,342.86 L217.28,367.17 Z" id="Shape" fill="#EB3030" fill-rule="nonzero"></path>
            <polygon id="Path" fill="#EB3030" fill-rule="nonzero" points="251.15 362.67 241.49 333.75 244.25 332.83 253.91 361.75"></polygon>
            <path d="M265,341.54 C260.982487,334.340039 263.529211,325.247277 270.702051,321.181539 C277.874891,317.115801 286.984538,319.601453 291.098317,326.746848 C295.212095,333.892244 292.78763,343.018365 285.67,347.18 C278.400991,351.301072 269.168515,348.781906 265,341.54 L265,341.54 Z M288.45,327.85 C284.988897,322.148776 277.57424,320.311326 271.851456,323.736663 C266.128672,327.162 264.244832,334.565006 267.634268,340.309126 C271.023704,346.053246 278.41477,347.983403 284.18,344.63 C289.996831,341.179867 291.917177,333.668584 288.47,327.85 L288.45,327.85 Z" id="Shape" fill="#EB3030" fill-rule="nonzero"></path>
            <path d="M122.51,145.79 C122.37051,140.437774 125.146171,135.431322 129.759483,132.71413 C134.372795,129.996938 140.097205,129.996938 144.710517,132.71413 C149.323829,135.431322 152.09949,140.437774 151.96,145.79" id="Path" stroke-width="4.61"></path>
            <path d="M236.33,145.79 C236.33,137.654846 242.924846,131.06 251.06,131.06 C259.195154,131.06 265.79,137.654846 265.79,145.79" id="Path" stroke-width="4.61"></path>
        </g>
    </g>
</svg>